<?xml version="1.0" encoding="UTF-8" standalone="no"?>
<!-- Created with Inkscape (http://www.inkscape.org/) -->

<svg
   width="50mm"
   height="25mm"
   viewBox="0 0 50 25"
   version="1.1"
   id="svg1"
   xml:space="preserve"
   inkscape:version="1.4.2 (f4327f4, 2025-05-13)"
   sodipodi:docname="nand.svg"
   xmlns:inkscape="http://www.inkscape.org/namespaces/inkscape"
   xmlns:sodipodi="http://sodipodi.sourceforge.net/DTD/sodipodi-0.dtd"
   xmlns="http://www.w3.org/2000/svg"
   xmlns:svg="http://www.w3.org/2000/svg">
	<sodipodi:namedview
   id="namedview1"
   pagecolor="#ffffff"
   bordercolor="#000000"
   borderopacity="0.25"
   inkscape:showpageshadow="2"
   inkscape:pageopacity="0.0"
   inkscape:pagecheckerboard="0"
   inkscape:deskcolor="#d1d1d1"
   inkscape:document-units="mm"
   showgrid="true"
   inkscape:zoom="1.0396254"
   inkscape:cx="91.379067"
   inkscape:cy="-13.466389"
   inkscape:window-width="1718"
   inkscape:window-height="1360"
   inkscape:window-x="1706"
   inkscape:window-y="0"
   inkscape:window-maximized="0"
   inkscape:current-layer="layer1">
		<inkscape:grid
   id="grid1"
   units="mm"
   originx="0"
   originy="0"
   spacingx="0.99999998"
   spacingy="1"
   empcolor="#0099e5"
   empopacity="0.30196078"
   color="#0099e5"
   opacity="0.14901961"
   empspacing="5"
   enabled="true"
   visible="true" />
	</sodipodi:namedview>
	<defs
   id="defs1" />
	<g
   inkscape:label="Layer 1"
   inkscape:groupmode="layer"
   id="layer1">
		<path
   id="nor"
   stroke-linecap="square"
   d="m 6.0498785,0.25337277 v 0.05935 c 1.961003,3.59446403 3.093552,7.74576303 3.093552,12.18914223 0,4.444321 -1.132549,8.595621 -3.093552,12.188201 v 0.0566 H 18.06202 c 8.56992,0 16.05187,-4.932378 20.06484,-12.244733 C 34.11389,5.1905208 26.63194,0.25343277 18.06202,0.25343277 Z M 41.7207,12.502815 c 0,1.040181 -0.8026,1.884385 -1.78355,1.884385 -0.98094,0 -1.78354,-0.844204 -1.78354,-1.884385 0,-1.04018 0.8026,-1.884385 1.78354,-1.884385 0.98095,0 1.78355,0.844205 1.78355,1.884385 z m 0,-9.41e-4 h 8.02593 M 0.25337151,6.3776228 H 8.2793045 M 0.25337151,18.626123 H 8.2793045"
   style="fill:white;stroke:#000000;stroke-width:0.506743" />
	</g>
</svg>
