<?xml version="1.0" encoding="UTF-8" standalone="no"?>
<!-- Created with Inkscape (http://www.inkscape.org/) -->

<svg
   width="1000"
   height="175"
   version="1.1"
   id="svg1"
   sodipodi:docname="p8.svg"
   inkscape:version="1.4 (e7c3feb1, 2024-10-09)"
   xmlns:inkscape="http://www.inkscape.org/namespaces/inkscape"
   xmlns:sodipodi="http://sodipodi.sourceforge.net/DTD/sodipodi-0.dtd"
   xmlns="http://www.w3.org/2000/svg"
   xmlns:svg="http://www.w3.org/2000/svg">
  <sodipodi:namedview
     id="namedview1"
     pagecolor="#ffffff"
     bordercolor="#000000"
     borderopacity="0.25"
     inkscape:showpageshadow="2"
     inkscape:pageopacity="0.0"
     inkscape:pagecheckerboard="0"
     inkscape:deskcolor="#d1d1d1"
     inkscape:zoom="0.84044692"
     inkscape:cx="878.69916"
     inkscape:cy="328.99163"
     inkscape:window-width="2432"
     inkscape:window-height="1322"
     inkscape:window-x="0"
     inkscape:window-y="25"
     inkscape:window-maximized="0"
     inkscape:current-layer="svg1" />
  <defs
     id="defs1">
    <linearGradient
       id="BackgroundGradient"
       gradientUnits="userSpaceOnUse"
       x1="0"
       y1="00"
       x2="136"
       y2="136"
       gradientTransform="scale(7.2992705,0.78020243)">
      <stop
         stop-color="#E1CB9E"
         stop-opacity="1"
         offset="0"
         id="stop1" />
      <stop
         stop-color="#E1A155"
         stop-opacity="1"
         offset="40%"
         id="stop2" />
      <stop
         stop-color="#E18312"
         stop-opacity="1"
         offset="100%"
         id="stop3" />
    </linearGradient>
    <filter
       style="color-interpolation-filters:sRGB;"
       id="DropShadow"
       x="-0.10115824"
       y="-0.07706229"
       width="1.286615"
       height="1.2183432">
      <feFlood
         result="flood"
         in="SourceGraphic"
         flood-opacity="0.498039"
         flood-color="rgb(0,0,0)"
         id="feFlood2" />
      <feGaussianBlur
         result="blur"
         in="SourceGraphic"
         stdDeviation="3.000000"
         id="feGaussianBlur2" />
      <feOffset
         result="offset"
         in="blur"
         dx="6.000000"
         dy="6.000000"
         id="feOffset2" />
      <feComposite
         result="comp1"
         operator="in"
         in="flood"
         in2="offset"
         id="feComposite2" />
      <feComposite
         result="comp2"
         operator="over"
         in="SourceGraphic"
         in2="comp1"
         id="feComposite3" />
    </filter>
  </defs>
  <g
     id="layer1"
     transform="scale(7.324106,1.2817186)">
    <rect
       style="fill:url(#BackgroundGradient);fill-opacity:1;stroke-width:0.610328"
       id="Background"
       width="136.53543"
       height="136.53543"
       x="0"
       y="0" />
  </g>
  <path
     style="font-size:215.608px;font-family:'Monaspace Xenon';-inkscape-font-specification:'Monaspace Xenon';fill:#08003e;stroke:#000000;stroke-width:2.28905"
     d="M 8.9470015,176.97694 H 72.443558 v -10.8882 l -28.352452,-6.03702 v -40.10309 h 19.620328 c 39.995286,0 61.340476,-21.345195 61.340476,-53.578591 0,-32.772416 -22.20762,-46.786936 -54.98004,-46.786936 H 8.9470015 V 30.471307 L 23.500542,36.831743 V 160.15952 L 8.9470015,166.08874 Z M 44.091106,105.7185 V 34.675663 h 21.237388 c 22.207624,0 37.407986,8.408712 37.407986,33.095828 0,23.17786 -13.25989,37.947009 -40.103086,37.947009 z m 163.107634,73.84574 c 14.87695,0 28.46025,-3.44973 38.91724,-8.30091 l 6.68385,-24.3637 -12.07405,-2.91071 -2.47949,5.06679 c -5.17459,11.96624 -14.98476,15.95499 -29.7539,15.95499 -25.01053,0 -39.45627,-17.35644 -39.88749,-43.76842 h 86.45881 v -7.33068 c 0,-34.605081 -19.40472,-51.099093 -47.97278,-51.099093 -34.82069,0 -59.61561,22.315428 -59.61561,59.507813 0,36.65336 20.91398,57.24392 59.72342,57.24392 z m -37.6236,-70.93503 c 3.34193,-20.159351 16.27841,-30.831947 35.57532,-30.831947 17.46425,0 29.21489,10.996008 29.43049,30.831947 z m 108.451,91.67135 h 56.3815 v -10.8882 l -21.66861,-6.25263 v -25.87296 c 6.14483,1.40145 12.72087,2.37168 19.94374,2.37168 39.88748,0 62.84973,-24.57931 62.84973,-63.17314 0,-31.155356 -15.09256,-53.255176 -45.38548,-53.255176 -16.49401,0 -29.21488,6.683848 -38.59383,13.583304 V 44.847194 l -2.80291,-1.293648 -35.0363,8.0853 V 63.60509 l 18.8657,2.910708 V 183.59094 l -14.55354,5.82142 z m 34.71289,-58.42977 V 67.162622 c 9.05554,-4.527768 19.51253,-8.0853 30.50853,-8.0853 21.66861,0 31.15536,14.769148 31.15536,38.917244 0,31.802184 -16.92523,47.002544 -41.72015,47.002544 -7.33067,0 -13.79891,-1.18584 -19.94374,-3.12632 z M 441.13379,198.53774 515.73416,19.583103 H 493.74214 L 419.24958,198.53774 Z m 161.59836,-18.8657 c 36.76117,0 54.76443,-18.54228 54.76443,-43.3372 0,-21.99202 -14.12232,-33.52705 -31.47876,-41.504545 15.09256,-7.54628 26.51978,-18.650092 26.51978,-38.162616 0,-28.244648 -23.07006,-39.671872 -48.94302,-39.671872 -28.67586,0 -48.40399,13.152088 -48.40399,39.34846 0,18.973504 10.7804,30.939748 25.87296,39.671872 -16.27841,6.791651 -31.80218,18.973501 -31.80218,41.827951 0,23.28567 17.24864,41.82795 53.47078,41.82795 z m -35.57532,-42.69038 c 0,-18.43448 13.69111,-28.56806 26.73539,-34.71289 0.53902,0.32341 1.18585,0.53902 1.72487,0.75463 26.19637,10.56479 41.82795,17.03303 41.82795,35.25191 0,17.35644 -13.5833,26.62759 -35.0363,26.62759 -19.83594,0 -35.25191,-8.30091 -35.25191,-27.92124 z m 6.68385,-81.823237 c 0,-15.63158 13.04428,-23.393468 30.07732,-23.393468 18.00326,0 31.04755,8.839928 31.04755,26.627588 0,15.200364 -10.02577,24.579312 -22.20763,31.047552 l -1.50925,-0.53902 C 588.60983,81.462599 573.84068,71.652435 573.84068,55.158423 Z"
     id="text1"
     transform="scale(1.2456131,0.8028175)"
     aria-label="Pep/8 " />
</svg>
