<svg xmlns="http://www.w3.org/2000/svg" height="24" viewBox="0 -960 960 960" width="24">
        <path d="M440-122q-121-15-200.5-105.5T160-440q0-66 26-126.5T260-672l57 57q-38 34-57.5 79T240-440q0 88 56 155.5T440-202v80Zm80 0v-80q87-16 143.5-83T720-440q0-100-70-170t-170-70h-3l44 44-56 56-140-140 140-140 56 56-44 44h3q134 0 227 93t93 227q0 121-79.5 211.5T520-122Z"/>
        <path transform="scale(0.7, 0.7) translate(420, 220)"  d="M480-200q66 0 113-47t47-113v-160q0-66-47-113t-113-47q-66 0-113 47t-47 113v160q0 66 47 113t113 47Zm-80-120h160v-80H400v80Zm0-160h160v-80H400v80Zm80 40Zm0 320q-65 0-120.5-32T272-240H160v-80h84q-3-20-3.5-40t-.5-40h-80v-80h80q0-20 .5-40t3.5-40h-84v-80h112q14-23 31.5-43t40.5-35l-64-66 56-56 86 86q28-9 57-9t57 9l88-86 56 56-66 66q23 15 41.5 34.5T688-640h112v80h-84q3 20 3.5 40t.5 40h80v80h-80q0 20-.5 40t-3.5 40h84v80H688q-32 56-87.5 88T480-120Z"/>
</svg>
